<svg width="112" height="168" viewBox="0 0 112 168" version="1.1" xmlns="http://www.w3.org/2000/svg" xmlns:xlink="http://www.w3.org/1999/xlink">
<title>Group</title>
<desc>Created using Figma</desc>
<g id="Canvas" transform="translate(-5141 1529)">
<g id="Group">
<g id="Group">
<g id="Vector">
<use xlink:href="#path0_fill" transform="translate(5193.1 -1467.3)" fill="#B66A28"/>
</g>
</g>
<g id="Group">
<g id="Vector">
<use xlink:href="#path1_fill" transform="translate(5194.1 -1467.6)" fill="#DB7D2F"/>
</g>
</g>
<g id="Group">
<g id="Group">
<g id="Vector">
<use xlink:href="#path2_fill" transform="matrix(0.5514 0.8342 -0.8342 0.5514 5222.84 -1426.96)" fill="#925523"/>
</g>
</g>
<g id="Group">
<g id="Vector">
<use xlink:href="#path3_fill" transform="matrix(0.9418 0.3361 -0.3361 0.9418 5214.1 -1414.06)" fill="#925523"/>
</g>
</g>
<g id="Group">
<g id="Vector">
<use xlink:href="#path4_fill" transform="matrix(0.3262 0.9453 -0.9453 0.3262 5230.26 -1401.65)" fill="#925523"/>
</g>
</g>
<g id="Group">
<g id="Vector">
<use xlink:href="#path5_fill" transform="matrix(0.9303 0.3669 -0.3669 0.9303 5214.16 -1388.29)" fill="#925523"/>
</g>
</g>
<g id="Group">
<g id="Vector">
<use xlink:href="#path6_fill" transform="matrix(0.9852 0.1714 -0.1714 0.9852 5209.03 -1436.48)" fill="#925523"/>
</g>
</g>
</g>
<g id="Group">
<g id="Group">
<g id="Vector">
<use xlink:href="#path7_fill" transform="translate(5192.8 -1502.46)" fill="#3FB763"/>
</g>
</g>
<g id="Group">
<g id="Vector">
<use xlink:href="#path8_fill" transform="translate(5182.82 -1526.1)" fill="#3FB763"/>
</g>
</g>
<g id="Group">
<g id="Vector">
<use xlink:href="#path9_fill" transform="translate(5144.4 -1469.8)" fill="#3FB763"/>
</g>
</g>
<g id="Group">
<g id="Vector">
<use xlink:href="#path10_fill" transform="translate(5172.32 -1467.4)" fill="#3FB763"/>
</g>
</g>
<g id="Group">
<g id="Vector">
<use xlink:href="#path11_fill" transform="translate(5193 -1476.98)" fill="#3FB763"/>
</g>
</g>
</g>
<g id="Group">
<g id="Vector">
<use xlink:href="#path12_fill" transform="translate(5190.48 -1469.85)" fill="#925523"/>
</g>
</g>
<g id="Group">
<g id="Group">
<g id="Vector">
<use xlink:href="#path13_fill" transform="translate(5193.8 -1502.46)" fill="#84C884"/>
</g>
</g>
<g id="Group">
<g id="Vector">
<use xlink:href="#path14_fill" transform="translate(5182.84 -1525.9)" fill="#84C884"/>
</g>
</g>
<g id="Group">
<g id="Vector">
<use xlink:href="#path15_fill" transform="translate(5144.2 -1469.8)" fill="#84C884"/>
</g>
</g>
<g id="Group">
<g id="Vector">
<use xlink:href="#path16_fill" transform="translate(5172.32 -1463.8)" fill="#84C884"/>
</g>
</g>
<g id="Group">
<g id="Vector">
<use xlink:href="#path17_fill" transform="translate(5197.5 -1476.45)" fill="#84C884"/>
</g>
</g>
</g>
<g id="Group">
<g id="Group">
<g id="Vector">
<use xlink:href="#path18_fill" transform="translate(5190.2 -1504.9)" fill="#32964F"/>
</g>
</g>
<g id="Group">
<g id="Vector">
<use xlink:href="#path19_fill" transform="translate(5180.37 -1528.64)" fill="#32964F"/>
</g>
</g>
<g id="Group">
<g id="Vector">
<use xlink:href="#path20_fill" transform="translate(5141.9 -1472.3)" fill="#32964F"/>
</g>
</g>
<g id="Group">
<g id="Vector">
<use xlink:href="#path21_fill" transform="translate(5169.87 -1469.84)" fill="#32964F"/>
</g>
</g>
<g id="Group">
<g id="Vector">
<use xlink:href="#path22_fill" transform="translate(5190.63 -1479.4)" fill="#32964F"/>
</g>
</g>
</g>
<g id="Group">
<g id="Vector">
<use xlink:href="#path23_fill" transform="translate(5156.39 -1373.92)" fill="#F2B61C"/>
</g>
</g>
</g>
</g>
<defs>
<path id="path0_fill" d="M 38.8 82.9C 38.8 87.9 38.5 92.9 37.8 97.7C 31.4 96.7 25 96.1 18.4 95.9C 20.3 87.3 21.4 78.3 21.4 69.1C 21.4 43.5 13.5 19.7 0 3.05176e-06C 23.7 19.8 38.8 49.5 38.8 82.9Z"/>
<path id="path1_fill" d="M 38.7 82.6C 38.7 87.2 38.4 91.7 37.9 96.2L 28.5 96.2C 36.7 38.4 2.7 2.4 0 0C 23.7 19.6 38.7 49.3 38.7 82.6Z"/>
<path id="path2_fill" d="M 3.00001 0L 6.10352e-06 0L 6.10352e-06 13.1L 3.00001 13.1L 3.00001 0Z"/>
<path id="path3_fill" d="M 17 3.05176e-06L 0 3.05176e-06L 0 3L 17 3L 17 3.05176e-06Z"/>
<path id="path4_fill" d="M 3 0L 0 0L 0 17.3L 3 17.3L 3 0Z"/>
<path id="path5_fill" d="M 19.7 3.05176e-06L 3.05176e-06 3.05176e-06L 3.05176e-06 3L 19.7 3L 19.7 3.05176e-06Z"/>
<path id="path6_fill" d="M 11.7 6.10352e-06L 6.10352e-06 6.10352e-06L 6.10352e-06 3.00001L 11.7 3.00001L 11.7 6.10352e-06Z"/>
<path id="path7_fill" d="M 48.3 2.06418L 27.8 15.9642L 20.5 13.0642L 20.5 20.8642L -3.05176e-06 34.7642C 0.499997 23.6642 6.00001 12.9642 15.9 6.26418C 25.8 -0.435818 37.8 -1.63582 48.3 2.06418Z"/>
<path id="path8_fill" d="M 20.6776 0L 15.9776 24.3L 8.77762 27.4L 14.2776 32.9L 9.57762 57.2C 2.07762 49 -1.62239 37.5 0.677613 25.8C 2.97761 14 10.6776 4.7 20.6776 0Z"/>
<path id="path9_fill" d="M 48.3 2.09533L 27.8 15.9953L 20.5 13.0953L 20.5 20.8953L 3.05176e-06 34.6953C 0.500003 23.5953 6 12.8953 15.9 6.19534C 25.8 -0.504664 37.9 -1.60467 48.3 2.09533Z"/>
<path id="path10_fill" d="M 20.6776 -3.05176e-06L 15.9776 24.3L 8.77762 27.4L 14.2776 32.9L 9.57762 57.2C 2.07762 49 -1.62239 37.5 0.677613 25.8C 2.87761 14.1 10.5776 4.8 20.6776 -3.05176e-06Z"/>
<path id="path11_fill" d="M 57.2 20.6776L 32.9 15.9776L 29.8 8.77761L 24.3 14.2776L -6.10352e-06 9.57762C 8.19999 2.07762 19.7 -1.62238 31.4 0.677622C 43.1 2.97762 52.4 10.6776 57.2 20.6776Z"/>
<path id="path12_fill" d="M 42.9209 100.552L 37.9209 99.8523C 38.6209 95.0523 38.9209 90.2523 38.9209 85.3523C 38.9209 60.2523 30.0209 36.3523 14.1209 17.5523C 22.2209 34.3523 26.4209 52.7523 26.4209 71.6523C 26.4209 80.8523 25.4209 90.0523 23.4209 99.0523L 18.5209 97.9523C 20.4209 89.3523 21.4209 80.5523 21.4209 71.6523C 21.4209 47.3523 14.1209 23.9523 0.420935 3.95233C -0.279065 2.95233 -0.0790712 1.55233 0.820929 0.652332C 1.72093 -0.147668 3.12093 -0.247659 4.12093 0.552341C 29.4209 21.5523 43.9209 52.4523 43.9209 85.3523C 43.9209 90.4523 43.6209 95.6523 42.9209 100.552Z"/>
<path id="path13_fill" d="M 47.3 2.06418L 42 5.66419C 33.8 4.36419 25.2 6.16419 18.2 10.9642C 11.7 15.3642 7 21.9642 4.8 29.4642C 4 29.8642 3.3 30.2642 2.5 30.7642C 1.6 29.6642 0.699997 28.4642 -3.05176e-06 27.2642C 2.1 18.9642 7.2 11.3642 14.8 6.26418C 24.8 -0.435818 36.8 -1.63582 47.3 2.06418Z"/>
<path id="path14_fill" d="M 20.6634 -3.05176e-06L 19.4634 6C 12.6634 10.9 7.86339 18.3 6.26339 26.7C 4.66339 34.8 6.26338 43.2 10.4634 50.1C 9.76338 52.2 9.26338 54.3 8.96338 56.5C 1.86338 48.4 -1.53662 37.2 0.66338 25.8C 2.96338 14.1 10.6634 4.8 20.6634 -3.05176e-06Z"/>
<path id="path15_fill" d="M 46.9 1.60467C 45 2.70467 43.2 4.00468 41.5 5.50468C 33.8 4.70468 25.9 6.60468 19.3 11.0047C 12.3 15.7047 7.40001 23.0047 5.50001 31.1047L 6.10352e-06 34.8047C 0.500006 23.7047 6 13.0047 15.9 6.30468C 25.4 -0.195318 36.8 -1.49533 46.9 1.60467Z"/>
<path id="path16_fill" d="M 19.6776 1.9L 19.4776 2.7C 12.6776 7.6 7.87762 15 6.27762 23.4C 4.67762 31.7 6.37763 40.4 10.8776 47.5L 9.57762 54C 2.07762 45.8 -1.62239 34.3 0.677613 22.6C 2.47761 13.1 7.87761 5.2 15.1776 3.05176e-06C 16.0776 0.100003 16.8776 0.300003 17.7776 0.500003C 17.8776 0.700003 17.9776 0.900003 18.1776 1C 18.5776 1.4 19.0776 1.7 19.6776 1.9Z"/>
<path id="path17_fill" d="M 46.6 19.5549C 41.7 12.4549 34.1 7.5549 25.6 5.8549C 17.1 4.2549 8.19999 6.05489 0.999994 10.7549L 0.6 10.6549C 0.8 9.9549 0.800003 9.25489 0.400003 8.55489C 0.300003 8.45489 0.300006 8.2549 0.200006 8.1549C 0.200006 7.8549 0.0999939 7.55489 -6.10352e-06 7.25489C 0.0999939 6.65489 0.199997 6.15489 0.299997 5.55489C 7.8 0.854892 17.1 -1.1451 26.5 0.654898C 38.2 2.9549 47.5 10.6549 52.3 20.6549L 46.6 19.5549Z"/>
<path id="path18_fill" d="M 2.50001 39.7C 2.10001 39.7 1.69999 39.6 1.29999 39.4C 0.499994 38.9 6.10352e-06 38.1 6.10352e-06 37.1C 0.500006 24.9 6.90001 13.5 17 6.6C 23.4 2.3 30.9 -3.05176e-06 38.6 -3.05176e-06C 43 -3.05176e-06 47.4 0.800002 51.6 2.2C 52.5 2.5 53.1 3.3 53.2 4.2C 53.3 5.1 52.9 6.1 52.1 6.6L 31.6 20.5C 30.9 21 30 21.1 29.3 20.7L 25.5 19.2L 25.5 23.3C 25.5 24.1 25.1 24.9 24.4 25.4L 3.9 39.3C 3.5 39.5 3.00001 39.7 2.50001 39.7ZM 38.7 4.90001C 32 4.90001 25.5 6.89999 19.9 10.7C 12.5 15.7 7.5 23.4 5.7 32L 20.6 21.9L 20.6 15.4C 20.6 14.6 21 13.8 21.7 13.3C 22.4 12.8 23.3 12.7 24 13.1L 30 15.5L 44.9 5.40001C 42.9 5.10001 40.8 4.90001 38.7 4.90001Z"/>
<path id="path19_fill" d="M 12.0308 62.24C 11.3308 62.24 10.6308 61.94 10.2308 61.44C 1.93075 52.44 -1.66925 39.84 0.730753 27.84C 3.03075 15.84 11.0307 5.54 22.1307 0.239997C 23.0307 -0.160003 24.0308 -0.06 24.7308 0.54C 25.4308 1.14 25.8307 2.04 25.6307 3.04L 20.9307 27.34C 20.7307 28.14 20.2307 28.84 19.4307 29.14L 15.6307 30.74L 18.5308 33.64C 19.1308 34.24 19.3308 35.04 19.2308 35.84L 14.5308 60.14C 14.3308 61.04 13.6308 61.84 12.7308 62.04C 12.5308 62.24 12.3308 62.24 12.0308 62.24ZM 19.6307 7.44C 12.4307 12.44 7.23076 20.14 5.53076 28.84C 3.83076 37.54 5.73075 46.64 10.6307 53.94L 14.0308 36.34L 9.43075 31.74C 8.83075 31.14 8.63075 30.34 8.73075 29.54C 8.93075 28.74 9.43075 28.04 10.2308 27.74L 16.2308 25.14L 19.6307 7.44Z"/>
<path id="path20_fill" d="M 2.5 39.7C 2.1 39.7 1.70001 39.6 1.30001 39.4C 0.500006 38.9 3.05176e-06 38.1 3.05176e-06 37.1C 0.500003 24.9 6.9 13.5 17 6.59999C 23.4 2.29999 30.9 3.05176e-06 38.6 3.05176e-06C 43 3.05176e-06 47.4 0.8 51.6 2.2C 52.5 2.5 53.1 3.3 53.2 4.2C 53.3 5.1 52.9 6.09999 52.1 6.59999L 31.7 20.5C 31 21 30.1 21.1 29.4 20.7L 25.6 19.2L 25.6 23.3C 25.6 24.1 25.2 24.9 24.5 25.4L 4 39.3C 3.5 39.6 3 39.7 2.5 39.7ZM 38.7 5C 32 5 25.5 7.00001 19.9 10.8C 12.5 15.8 7.5 23.5 5.7 32.1L 20.6 22L 20.6 15.5C 20.6 14.7 21 13.9 21.7 13.4C 22.4 12.9 23.3 12.8 24 13.2L 30 15.6L 44.9 5.5C 42.9 5.2 40.8 5 38.7 5Z"/>
<path id="path21_fill" d="M 12.0308 62.24C 11.3308 62.24 10.6308 61.94 10.2308 61.44C 1.93075 52.44 -1.66925 39.84 0.730753 27.84C 3.03075 15.84 11.0307 5.54 22.1307 0.24C 23.0307 -0.16 24.0308 -0.059997 24.7308 0.540003C 25.4308 1.14 25.8307 2.04 25.6307 3.04L 20.9307 27.34C 20.7307 28.14 20.2307 28.84 19.4307 29.14L 15.6307 30.74L 18.5308 33.64C 19.1308 34.24 19.3308 35.04 19.2308 35.84L 14.5308 60.14C 14.3308 61.04 13.6308 61.84 12.7308 62.04C 12.4308 62.14 12.2308 62.24 12.0308 62.24ZM 19.6307 7.34001C 12.4307 12.34 7.23076 20.04 5.53076 28.74C 3.83076 37.44 5.73075 46.54 10.6307 53.84L 14.0308 36.24L 9.43075 31.64C 8.83075 31.04 8.63075 30.24 8.73075 29.44C 8.93075 28.64 9.43075 27.94 10.2308 27.64L 16.2308 25.04L 19.6307 7.34001Z"/>
<path id="path22_fill" d="M 59.5735 25.6C 59.3735 25.6 59.2735 25.6 59.0735 25.6L 34.7735 20.9C 33.9735 20.7 33.2735 20.2 32.9735 19.4L 31.3735 15.6L 28.4735 18.5C 27.8735 19.1 27.0735 19.3 26.2735 19.2L 1.97351 14.5C 1.07351 14.3 0.273513 13.6 0.0735126 12.7C -0.126487 11.8 0.0735095 10.8 0.77351 10.2C 7.97351 3.59999 17.2735 -3.05176e-06 26.9735 -3.05176e-06C 29.4735 -3.05176e-06 31.9735 0.199994 34.3735 0.699994C 46.3735 2.99999 56.6735 11 61.9735 22.1C 62.3735 23 62.2735 24 61.6735 24.7C 61.0735 25.3 60.3735 25.6 59.5735 25.6ZM 37.0735 16.2L 54.6735 19.6C 49.6735 12.4 41.9735 7.2 33.2735 5.5C 31.1735 5.1 28.9735 4.90001 26.7735 4.90001C 20.0735 4.90001 13.5735 6.9 8.07351 10.6L 25.7735 14L 30.3735 9.40001C 30.9735 8.80001 31.7735 8.59999 32.5735 8.69999C 33.3735 8.89999 34.0735 9.39999 34.3735 10.2L 37.0735 16.2Z"/>
<path id="path23_fill" d="M 2.5123 12.3158C 1.4123 12.3158 0.512293 11.6158 0.112293 10.6158C -0.287707 9.31583 0.4123 7.91585 1.7123 7.51585C 12.1123 4.21585 23.0123 1.91584 33.9123 0.815838C 40.9123 0.115838 48.2123 -0.184159 55.1123 0.115841C 61.7123 0.315841 68.4123 0.915844 74.8123 1.91584C 79.5123 2.61584 84.3123 3.61584 89.0123 4.81584C 90.3123 5.11584 91.2123 6.51584 90.8123 7.81584C 90.4123 9.11584 89.1123 10.0158 87.8123 9.61583C 83.2123 8.51583 78.6123 7.51584 74.1123 6.81584C 67.8123 5.81584 61.4123 5.21585 55.0123 5.01585C 48.3123 4.81585 41.2123 5.01583 34.4123 5.71583C 23.8123 6.81583 13.3123 9.01583 3.2123 12.2158C 3.0123 12.3158 2.7123 12.3158 2.5123 12.3158Z"/>
</defs>
</svg>
